<?xml version="1.0" standalone="no"?>
<!DOCTYPE svg PUBLIC "-//W3C//DTD SVG 20010904//EN"
 "http://www.w3.org/TR/2001/REC-SVG-20010904/DTD/svg10.dtd">
<svg version="1.0" xmlns="http://www.w3.org/2000/svg"
 width="500.000000pt" height="500.000000pt" viewBox="0 0 500.000000 500.000000"
 preserveAspectRatio="xMidYMid meet">

<g transform="translate(0.000000,500.000000) scale(0.100000,-0.100000)"
fill="#000000" stroke="none">
<path d="M2291 3505 c-12 -6 -19 -13 -16 -16 2 -3 -9 -4 -25 -1 -17 2 -30 0
-30 -6 0 -6 -8 -11 -17 -10 -10 0 -45 -9 -78 -21 -33 -12 -70 -24 -82 -26 -57
-13 -187 -65 -238 -96 -71 -42 -162 -140 -202 -216 -47 -89 -147 -393 -134
-406 6 -6 11 -16 11 -22 0 -5 -5 -3 -10 5 -9 13 -11 13 -20 0 -15 -23 -12 -30
10 -30 12 0 20 -6 19 -12 -3 -28 2 -39 19 -36 9 2 21 8 25 13 5 6 6 -3 3 -20
-3 -16 -3 -24 0 -17 3 6 11 9 16 6 7 -4 8 -2 4 4 -4 7 -2 12 3 12 10 0 12 -15
15 -80 1 -46 -22 -251 -45 -400 -14 -91 -13 -235 1 -273 29 -76 45 -103 86
-147 24 -26 42 -50 39 -53 -3 -4 -2 -5 2 -2 3 3 12 -3 20 -13 8 -9 11 -11 8
-4 -6 11 -3 11 13 1 12 -7 18 -17 15 -23 -3 -5 -1 -6 6 -2 16 10 53 -3 45 -16
-4 -7 5 -8 27 -4 24 4 28 3 14 -3 -19 -8 -19 -9 5 -13 23 -5 23 -5 3 -7 -42
-2 -26 -29 22 -37 25 -3 43 -9 40 -13 -4 -8 60 -81 72 -81 3 0 19 -15 34 -32
l28 -33 1 28 c0 29 17 37 26 12 4 -8 17 -15 30 -15 21 0 24 -5 24 -35 0 -34 1
-35 41 -35 22 0 48 -4 57 -9 10 -5 27 -5 42 2 14 5 34 12 45 14 19 3 207 66
350 117 39 13 180 63 315 111 135 48 269 101 299 118 69 41 158 137 197 212
18 33 60 150 94 260 34 110 65 207 68 215 3 8 6 20 7 25 5 21 37 121 45 142 7
16 5 23 -8 29 -9 4 -21 6 -25 5 -5 -1 -6 3 -3 8 3 5 0 14 -8 20 -7 6 -17 26
-21 44 -4 17 -9 26 -12 20 -7 -19 -23 -16 -24 5 0 15 -2 14 -10 -3 -7 -16 -8
-13 -4 13 5 33 -10 46 -18 15 -3 -10 -3 5 -2 32 2 28 1 41 -2 30 -8 -31 -23
-42 -23 -18 0 12 -4 25 -10 28 -5 3 -10 13 -10 21 0 8 3 13 8 11 4 -3 5 22 4
55 -2 33 0 64 5 69 5 5 5 46 1 96 -16 158 -84 259 -217 321 -71 33 -78 34
-160 29 -47 -3 -115 -10 -151 -16 -36 -5 -85 -12 -110 -15 -88 -11 -335 -47
-350 -51 -8 -3 -56 -7 -105 -9 -54 -3 -80 -1 -65 4 14 4 18 9 10 9 -13 1 -13
2 0 12 13 9 13 10 0 8 -8 -1 -25 -1 -38 0 -21 1 -22 3 -8 16 8 8 22 15 31 15
13 0 15 7 9 35 -4 25 -3 35 6 35 8 0 10 8 7 22 -3 11 0 33 8 48 14 26 13 28
-9 32 -13 3 -34 0 -45 -7z m36 -13 c-10 -2 -14 -8 -10 -15 4 -7 -1 -6 -10 2
-18 15 -23 26 -7 16 6 -3 10 -2 10 4 0 6 8 7 18 3 16 -6 16 -7 -1 -10z m-150
-48 c-3 -3 -12 -4 -19 -1 -8 3 -5 6 6 6 11 1 17 -2 13 -5z m130 -150 c-3 -3
-12 -4 -19 -1 -8 3 -5 6 6 6 11 1 17 -2 13 -5z m-339 -516 l2 -168 180 0 180
0 0 170 0 170 85 0 85 0 0 -430 0 -430 -85 0 -85 0 0 180 0 180 -180 0 -180 0
0 -180 0 -180 -85 0 -85 0 0 430 0 431 83 -3 82 -3 3 -167z m1267 92 l0 -75
-202 -3 -203 -2 0 -95 0 -95 180 0 180 0 0 -75 0 -75 -180 0 -180 0 0 -100 0
-100 210 0 211 0 -3 -77 -3 -78 -292 0 -293 0 0 428 0 427 288 -2 287 -3 0
-75z m-1741 -159 c14 -15 15 -21 4 -27 -7 -4 -10 -3 -5 1 4 5 0 17 -10 27 -9
10 -14 18 -11 18 3 0 13 -9 22 -19z"/>
<path d="M2365 3290 c3 -5 8 -10 11 -10 2 0 4 5 4 10 0 6 -5 10 -11 10 -5 0
-7 -4 -4 -10z"/>
<path d="M3627 2661 c-4 -17 -3 -21 5 -13 5 5 8 16 6 23 -3 8 -7 3 -11 -10z"/>
<path d="M1440 2636 c0 -9 -4 -14 -10 -11 -5 3 -10 1 -10 -4 0 -13 10 -14 30
-1 12 7 12 12 2 22 -9 9 -12 8 -12 -6z"/>
<path d="M3645 2639 c-11 -17 1 -21 15 -4 8 9 8 15 2 15 -6 0 -14 -5 -17 -11z"/>
<path d="M3648 2613 c-21 -5 -31 -30 -14 -36 8 -3 18 5 25 19 6 13 10 23 8 23
-1 -1 -9 -3 -19 -6z"/>
<path d="M1416 2583 c-6 -14 -5 -15 5 -6 7 7 10 15 7 18 -3 3 -9 -2 -12 -12z"/>
<path d="M1396 2533 c-6 -14 -5 -15 5 -6 7 7 10 15 7 18 -3 3 -9 -2 -12 -12z"/>
<path d="M2030 1376 c0 -2 7 -9 15 -16 12 -10 15 -10 15 4 0 9 -7 16 -15 16
-8 0 -15 -2 -15 -4z"/>
<path d="M2051 1312 c-10 -3 -7 -8 10 -17 20 -11 25 -10 37 4 12 15 13 15 9 0
-5 -15 -1 -15 29 -6 19 6 34 14 34 19 0 11 -7 10 -31 -2 -10 -6 -19 -7 -19 -2
0 10 -47 13 -69 4z"/>
</g>
</svg>
